#!OML:ASF F:\VICON\USERDATA\INSTALL\rory3\rory3.ASF
:FULLY-SPECIFIED
:DEGREES
3345
root -2.61726 17.647 1.95881 2.92054 0.841958 1.29827
lowerback -1.76872 -0.78548 -4.67408
upperback -0.234215 -0.975411 2.05475
thorax 0.865546 -0.507507 4.72206
lowerneck -14.7375 0.2652 -10.4851
upperneck 35.2926 2.6365 2.991
head 14.4691 0.142882 3.50355
rclavicle -5.55355e-015 -3.97569e-016
rhumerus 11.6707 -40.7157 -0.377104
rradius 46.4662
rwrist 30.9548
rhand -27.2555 -7.22951
rfingers 7.12502
rthumb -0.666892 -37.2082
lclavicle -5.55355e-015 -3.97569e-016
lhumerus 0.316729 39.0047 -11.4784
lradius 40.5273
lwrist -5.28697
lhand -20.3362 24.2129
lfingers 7.12502
lthumb 6.0152 54.1076
rfemur -10.4059 3.37783 11.4043
rtibia 31.4704
rfoot -22.603 -6.37336
rtoes 7.76733
lfemur -7.47728 -2.47106 -18.5349
ltibia 27.2229
lfoot -17.8332 7.17515
ltoes -19.9984
3346
root -2.61801 17.6468 1.96686 2.94923 0.886943 1.26365
lowerback -1.66072 -0.786319 -4.68538
upperback -0.161923 -0.980313 2.05569
thorax 0.880224 -0.512046 4.73015
lowerneck -14.6203 0.257141 -10.5086
upperneck 35.2926 2.61692 2.98801
head 14.4443 0.131527 3.50095
rclavicle -1.08089e-014 -7.15625e-015
rhumerus 8.83834 -41.1552 1.6955
rradius 46.484
rwrist 30.3948
rhand -27.3535 -6.8711
rfingers 7.12502
rthumb -0.761494 -36.8495
lclavicle -1.08089e-014 -7.15625e-015
lhumerus -2.14393 39.3594 -13.0694
lradius 40.5549
lwrist -4.9009
lhand -21.7138 25.2011
lfingers 7.12502
lthumb 4.68512 55.1293
rfemur -10.3993 3.41544 11.4583
rtibia 31.4815
rfoot -22.6682 -6.40053
rtoes 7.82855
lfemur -7.46603 -2.58351 -18.4919
ltibia 27.2016
lfoot -17.8395 7.20135
ltoes -19.9677
3347
root -2.61863 17.6461 1.97465 2.99465 0.95425 1.29684
lowerback -1.608 -0.794284 -4.73581
upperback -0.0423688 -0.990847 2.01888
thorax 0.975301 -0.522767 4.71995
lowerneck -14.5865 0.251024 -10.5401
upperneck 35.2624 2.60838 2.99884
head 14.423 0.126797 3.50776
rclavicle 6.31141e-015 -2.38542e-014
rhumerus 5.96505 -41.6492 3.69358
rradius 46.3983
rwrist 29.91
rhand -27.4735 -6.24932
rfingers 7.12502
rthumb -0.877368 -36.2273
lclavicle 6.31141e-015 -2.38542e-014
lhumerus -4.56127 39.8873 -14.5548
lradius 40.5214
lwrist -4.71176
lhand -22.2385 24.9313
lfingers 7.12502
lthumb 4.17844 54.8701
rfemur -10.402 3.39693 11.4265
rtibia 31.4944
rfoot -22.7506 -6.34522
rtoes 8.09932
lfemur -7.47389 -2.74963 -18.5287
ltibia 27.1815
lfoot -17.8313 7.25126
ltoes -19.7976
3348
root -2.61881 17.6468 1.98267 3.15609 1.02188 1.35497
lowerback -1.60276 -0.830766 -4.83093
upperback -0.0565481 -1.03792 1.99204
thorax 0.964484 -0.546092 4.74484
lowerneck -14.3128 0.31625 -10.6006
upperneck 35.2065 2.66633 3.05008
head 14.3272 0.155051 3.54038
rclavicle -1.01132e-014 -8.34896e-015
rhumerus 3.14511 -41.7905 5.57144
rradius 46.3515
rwrist 29.7142
rhand -27.4357 -6.55271
rfingers 7.12502
rthumb -0.840883 -36.5308
lclavicle -1.01132e-014 -8.34896e-015
lhumerus -7.02096 40.1073 -15.9889
lradius 40.4738
lwrist -4.72565
lhand -21.4368 24.3627
lfingers 7.12502
lthumb 4.95257 54.2849
rfemur -10.5309 3.31968 11.3586
rtibia 31.5156
rfoot -22.7804 -6.35
rtoes 8.06442
lfemur -7.62732 -2.78573 -18.5793
ltibia 27.1591
lfoot -17.8273 7.21495
ltoes -19.6168
3349
root -2.61863 17.6472 1.98983 3.27272 1.05466 1.41825
lowerback -1.52397 -0.87812 -4.95655
upperback -0.0871102 -1.10285 1.99304
thorax 0.898871 -0.576626 4.81676
lowerneck -14.0694 0.378191 -10.6716
upperneck 35.1921 2.74329 3.05601
head 14.2578 0.181495 3.56088
rclavicle -8.57259e-015 5.56597e-015
rhumerus 0.416644 -41.8213 7.31365
rradius 46.336
rwrist 29.6058
rhand -27.3391 -6.88585
rfingers 7.12502
rthumb -0.747588 -36.8643
lclavicle -8.57259e-015 5.56597e-015
lhumerus -9.66526 40.0223 -17.4543
lradius 40.4908
lwrist -4.75481
lhand -20.2567 23.8339
lfingers 7.12502
lthumb 6.09197 53.7263
rfemur -10.636 3.25371 11.2846
rtibia 31.5395
rfoot -22.7858 -6.38088
rtoes 7.66221
lfemur -7.72993 -2.7863 -18.6416
ltibia 27.1457
lfoot -17.8265 7.17254
ltoes -19.5059
3350
root -2.61865 17.6472 1.99659 3.36494 1.00995 1.42769
lowerback -1.54229 -0.869984 -5.01052
upperback 0.00695021 -1.08918 1.99774
thorax 1.00565 -0.575342 4.85169
lowerneck -13.9632 0.374359 -10.8508
upperneck 35.1216 2.75008 3.12392
head 14.1979 0.173935 3.61581
rclavicle 1.82633e-014 -1.31198e-014
rhumerus -2.39693 -42.0732 9.04908
rradius 46.2332
rwrist 29.3896
rhand -27.6143 -6.4342
rfingers 7.12502
rthumb -1.01344 -36.4115
lclavicle 1.82633e-014 -1.31198e-014
lhumerus -12.2619 40.1957 -18.7554
lradius 40.4831
lwrist -4.67671
lhand -19.6883 23.4413
lfingers 7.12502
lthumb 6.6407 53.3171
rfemur -10.7428 3.21998 11.2642
rtibia 31.5541
rfoot -22.7272 -6.44401
rtoes 7.23414
lfemur -7.80441 -2.7696 -18.6542
ltibia 27.1495
lfoot -17.8502 7.21469
ltoes -19.7479
3351
root -2.61886 17.6473 2.00289 3.46369 1.01962 1.3802
lowerback -1.63071 -0.861197 -5.01609
upperback 0.145587 -1.07178 2.00896
thorax 1.19656 -0.575502 4.86478
lowerneck -13.7876 0.391266 -10.9654
upperneck 34.941 2.76583 3.16132
head 14.0726 0.18068 3.64258
rclavicle -1.27471e-014 -3.97569e-016
rhumerus -5.23785 -42.4019 10.7107
rradius 46.0533
rwrist 29.2582
rhand -27.8533 -5.76123
rfingers 7.12502
rthumb -1.24425 -35.7373
lclavicle -1.27471e-014 -3.97569e-016
lhumerus -14.7595 40.4949 -19.9192
lradius 40.3948
lwrist -4.56493
lhand -19.8497 23.3134
lfingers 7.12502
lthumb 6.48496 53.1942
rfemur -10.8275 3.18321 11.3123
rtibia 31.5513
rfoot -22.7077 -6.45841
rtoes 7.10894
lfemur -7.90476 -2.76266 -18.5947
ltibia 27.1716
lfoot -17.9117 7.21559
ltoes -20.0672
3352
root -2.62048 17.6488 2.00946 3.59307 1.07601 1.36259
lowerback -1.75005 -0.878332 -5.05629
upperback 0.259212 -1.08698 2.01319
thorax 1.38361 -0.591557 4.88908
lowerneck -13.5868 0.419095 -11.0132
upperneck 34.7753 2.77998 3.18187
head 13.95 0.192583 3.65059
rclavicle -3.15571e-015 1.86858e-014
rhumerus -8.09382 -42.6118 12.2669
rradius 45.9349
rwrist 29.1186
rhand -27.8635 -5.57857
rfingers 7.12502
rthumb -1.25406 -35.5546
lclavicle -3.15571e-015 1.86858e-014
lhumerus -17.2467 40.4934 -21.0402
lradius 40.2757
lwrist -4.15709
lhand -19.9198 23.1707
lfingers 7.12502
lthumb 6.41722 53.0535
rfemur -10.9173 3.11254 11.334
rtibia 31.5323
rfoot -22.7225 -6.44464
rtoes 7.17913
lfemur -8.05925 -2.74475 -18.5551
ltibia 27.2112
lfoot -17.9382 7.1418
ltoes -19.9571
3353
root -2.62357 17.6495 2.01328 3.67816 1.14457 1.27031
lowerback -1.75358 -0.891281 -5.04606
upperback 0.354124 -1.10361 2.03699
thorax 1.48593 -0.605173 4.90681
lowerneck -13.8535 0.447874 -10.9326
upperneck 35.1497 2.82152 3.26057
head 14.1732 0.21281 3.69547
rclavicle 1.94064e-014 -1.19271e-014
rhumerus -10.9982 -42.6076 13.764
rradius 45.8841
rwrist 28.7811
rhand -27.9565 -5.8888
rfingers 7.12502
rthumb -1.34394 -35.8643
lclavicle 1.94064e-014 -1.19271e-014
lhumerus -19.7325 40.2885 -22.0835
lradius 40.1958
lwrist -3.55621
lhand -19.7673 22.7425
lfingers 7.12502
lthumb 6.56447 52.6208
rfemur -10.9687 3.11747 11.4573
rtibia 31.507
rfoot -22.7697 -6.50713
rtoes 7.21171
lfemur -8.18806 -2.75474 -18.4215
ltibia 27.2592
lfoot -17.9592 7.04883
ltoes -19.8587
3354
root -2.62544 17.6504 2.01534 3.75319 1.20164 1.22541
lowerback -1.63937 -0.897168 -5.0451
upperback 0.347571 -1.11679 2.02596
thorax 1.41635 -0.609532 4.89592
lowerneck -14.2386 0.523691 -10.8255
upperneck 35.8606 2.93652 3.38561
head 14.5744 0.257701 3.78383
rclavicle 9.29318e-015 -1.11319e-014
rhumerus -13.8718 -42.3736 15.1063
rradius 45.8664
rwrist 28.539
rhand -28.0054 -6.40144
rfingers 7.12502
rthumb -1.39113 -36.3766
lclavicle 9.29318e-015 -1.11319e-014
lhumerus -22.0282 39.8694 -22.8872
lradius 40.1156
lwrist -2.99958
lhand -19.8398 22.8385
lfingers 7.12502
lthumb 6.49443 52.7189
rfemur -11.0141 3.12451 11.5165
rtibia 31.4889
rfoot -22.8213 -6.46487
rtoes 7.69214
lfemur -8.30587 -2.72719 -18.3494
ltibia 27.2999
lfoot -17.9753 6.99134
ltoes -20.0178
3355
root -2.62584 17.6502 2.01751 3.85929 1.27065 1.23649
lowerback -1.60635 -0.907692 -5.09595
upperback 0.353854 -1.13118 2.01895
thorax 1.40696 -0.617011 4.91745
lowerneck -14.2148 0.563521 -10.9354
upperneck 36.0815 2.99692 3.49102
head 14.6622 0.272969 3.86496
rclavicle -6.63444e-015 -2.78299e-015
rhumerus -16.6239 -42.2618 16.3355
rradius 45.754
rwrist 28.5117
rhand -27.9653 -6.35446
rfingers 7.12502
rthumb -1.35237 -36.3299
lclavicle -6.63444e-015 -2.78299e-015
lhumerus -24.2418 39.3751 -23.4309
lradius 40.1012
lwrist -2.54112
lhand -20.2135 23.3728
lfingers 7.12502
lthumb 6.13372 53.264
rfemur -11.1008 3.03161 11.501
rtibia 31.4827
rfoot -22.8258 -6.45625
rtoes 7.97639
lfemur -8.44001 -2.73923 -18.3485
ltibia 27.3289
lfoot -17.9922 6.94834
ltoes -20.1655
3356
root -2.62599 17.6505 2.01955 3.99509 1.34487 1.23742
lowerback -1.75079 -0.900354 -5.11169
upperback 0.498441 -1.11211 1.9968
thorax 1.63498 -0.617626 4.90083
lowerneck -13.8101 0.508754 -11.0404
upperneck 35.5389 2.89226 3.4332
head 14.3283 0.234993 3.8107
rclavicle -8.99501e-015 3.18055e-015
rhumerus -19.4844 -42.4795 17.5802
rradius 45.5727
rwrist 28.6421
rhand -27.9093 -5.94291
rfingers 7.12502
rthumb -1.29832 -35.9187
lclavicle -8.99501e-015 3.18055e-015
lhumerus -26.3475 39.2425 -23.8178
lradius 39.9528
lwrist -2.2893
lhand -20.3694 23.5581
lfingers 7.12502
lthumb 5.98315 53.4537
rfemur -11.2256 2.91794 11.4914
rtibia 31.4874
rfoot -22.8591 -6.47571
rtoes 7.79882
lfemur -8.60522 -2.7978 -18.3414
ltibia 27.3464
lfoot -17.9462 6.94515
ltoes -20.1165
